<svg xmlns="http://www.w3.org/2000/svg" width="275" height="104" fill="none" viewBox="0 0 275 104" style="height:1.5rem;margin-bottom:.2rem"><path fill="#404040" d="M 69.3 69.6 C 69.3 79.2 66 87.3 59.3 93.9 C 52.8 100.6 44.7 103.9 35.1 103.9 C 25.5 103.9 17.3 100.6 10.7 94.1 C 4.1 87.4 0.8 79.3 0.8 69.6 C 0.8 60.1 4.2 52 10.8 45.4 C 17.5 38.8 25.6 35.4 35.1 35.4 C 41.2 35.4 46.8 36.9 52 39.9 V 0.6 H 69.3 V 69.6 Z M 52 69.6 C 52 65 50.4 61 47 57.7 C 43.7 54.4 39.7 52.7 35.1 52.7 C 30.4 52.7 26.4 54.4 23.1 57.7 C 19.8 61 18.1 64.9 18.1 69.6 C 18.1 74.3 19.8 78.3 23.1 81.6 C 26.4 85 30.4 86.6 35.1 86.6 C 39.8 86.6 43.8 85 47 81.6 C 50.4 78.3 52 74.3 52 69.6 Z M 146.6 69.6 C 146.6 79.2 143.2 87.3 136.6 93.9 C 130 100.6 121.9 103.9 112.4 103.9 C 102.7 103.9 94.6 100.6 87.9 94.1 C 81.4 87.4 78.1 79.3 78.1 69.6 C 78.1 60.1 81.4 52 88.1 45.4 C 94.7 38.8 102.8 35.4 112.4 35.4 C 121.9 35.4 130 38.8 136.6 45.4 C 143.2 52 146.6 60.1 146.6 69.6 Z M 129.3 69.6 C 129.3 65 127.6 61 124.3 57.7 C 121 54.4 117 52.7 112.4 52.7 C 107.7 52.7 103.7 54.4 100.4 57.7 C 97 61 95.4 64.9 95.4 69.6 C 95.4 74.3 97 78.3 100.4 81.6 C 103.7 85 107.7 86.6 112.4 86.6 C 117.1 86.6 121 85 124.3 81.6 C 127.6 78.3 129.3 74.3 129.3 69.6 Z M 213.6 94.3 C 206.9 100.7 199 103.9 189.9 103.9 C 180.2 103.9 172.1 100.6 165.4 94.1 C 158.9 87.4 155.6 79.3 155.6 69.6 C 155.6 60.1 158.9 52 165.6 45.4 C 172.2 38.8 180.3 35.4 189.9 35.4 C 198.6 35.4 206.2 38.4 212.7 44.3 L 202.3 58.2 C 199 54.6 194.8 52.7 189.9 52.7 C 185.2 52.7 181.2 54.4 177.9 57.7 C 174.5 61 172.9 64.9 172.9 69.6 C 172.9 74.3 174.5 78.3 177.9 81.6 C 181.2 85 185.2 86.6 189.9 86.6 C 195 86.6 199.2 84.7 202.6 80.8 L 213.6 94.3 Z M 274.1 82.4 C 274.1 86.5 272.7 90.2 270 93.6 C 264.5 100.2 256.7 103.4 246.7 103.2 C 242.6 103.1 238.3 102.2 233.5 100.5 C 228.8 98.8 224.9 96.6 222 94.1 L 231.6 81.6 C 236.2 86 241.1 88.2 246.3 88.2 H 246.7 C 248.8 88.2 250.7 87.8 252.4 87 C 254.6 86 255.7 84.5 255.7 82.7 V 82.2 C 255.5 80.2 254.2 78.8 251.8 77.9 C 250.8 77.8 248.8 77.4 245.8 76.8 C 241.9 76 238.7 75.1 236 74 C 228.3 70.6 224.4 64.8 224.4 56.4 C 224.4 48.4 228.4 42.4 236.3 38.4 C 239.8 36.6 243.6 35.7 247.7 35.6 C 251.9 35.5 256.4 36.2 261 37.7 C 266.3 39.5 270 41.9 272.3 44.8 L 260.7 55.2 C 257.8 52.2 254.5 50.7 251 50.7 C 245.5 50.7 242.8 52.5 242.8 56 V 56.3 C 242.8 58 245 59.5 249.5 60.7 C 249.8 60.7 252.6 61.3 257.9 62.3 C 268.7 64.4 274.1 70.9 274.1 82 V 82.4 Z" class="docs-logo-svg"/><style>[data-theme=dark] .docs-logo-svg{fill:#cbd5e1}</style></svg>